<svg width="228" height="121" viewBox="0 0 228 121" fill="none" xmlns="http://www.w3.org/2000/svg">
<rect y="3.00024" width="228" height="118" rx="6" fill="#8A1538"/>
<g clip-path="url(#clip0_1_5047)">
<path d="M150.181 20.5179C150.77 19.9474 151.313 19.3798 151.903 18.8622C155.075 16.0842 158.683 14.1226 162.793 13.141C166.329 12.2985 169.848 12.3413 173.326 13.485C176.084 14.3951 178.434 15.9306 180.405 18.0576C180.801 18.4805 181.189 18.9201 181.596 19.3308C182.762 20.5113 183.707 21.8514 184.429 23.3397C184.969 24.4462 185.478 25.5709 185.899 26.729C186.492 28.3524 186.703 30.0562 186.657 31.7791C186.618 33.2483 186.547 34.7243 186.218 36.1665C186.197 36.2623 186.206 36.3699 186.203 36.4967C186.478 36.7641 186.856 36.8406 187.2 36.9608C188.85 37.5316 190.485 38.1402 192.064 38.8953C192.344 39.0288 192.614 39.1746 192.9 39.287C194.258 39.8379 194.783 41.7742 194.129 42.9546C193.4 44.2735 192.657 45.5771 191.674 46.7354C191.022 47.5035 190.199 48.0388 189.441 48.5652C189.281 48.5458 189.201 48.5625 189.149 48.5337C187.443 47.5499 185.525 47.1003 183.73 46.341C179.349 44.4877 174.969 42.6273 170.59 40.7669C165.483 38.5997 160.32 36.579 155.122 34.6434C150.633 32.9721 146.149 31.2682 141.664 29.5829C140.734 29.2341 139.8 28.8995 138.874 28.5482C138.652 28.4638 138.436 28.3583 138.219 28.2527C137.986 28.1391 137.844 27.9666 137.864 27.6866C137.885 27.4067 138.194 27.4877 138.305 27.3215C138.394 26.496 138.661 25.7324 139.053 24.9976C139.361 24.4248 139.635 23.8357 139.9 23.2404C140.557 21.749 141.506 20.4617 142.6 19.2686C142.914 18.9302 143.269 18.8355 143.711 18.94C145.312 19.3067 146.919 19.6524 148.514 20.0288C149.086 20.1524 149.631 20.3514 150.181 20.5179ZM185.088 37.7443C185.185 37.1577 185.283 36.6539 185.344 36.1479C185.589 34.0642 185.538 31.9816 185.245 29.9033C184.773 26.5428 183.548 23.4621 181.456 20.8113C177.678 16.0218 172.682 13.7368 166.573 14.0185C162.471 14.2098 158.755 15.6397 155.321 17.8271C153.539 18.9641 151.853 20.2423 150.312 21.7388C150.155 21.6939 149.995 21.6445 149.831 21.5978C148.155 21.1139 146.475 20.6325 144.795 20.1512C144.595 20.0953 144.396 20.0507 144.193 20.0088C143.865 19.9452 143.599 20.041 143.378 20.3134C142.589 21.3047 141.737 22.2494 141.164 23.3876C140.486 24.7307 139.824 26.082 139.16 27.4288C139.145 27.4551 139.15 27.4939 139.141 27.5291C139.734 27.8608 140.662 28.1452 141.568 28.2698C142.157 27.1398 142.676 25.9614 143.37 24.8175C143.717 25.7272 143.713 25.7597 142.801 28.7805C143.211 28.9217 143.631 29.0691 144.045 29.2076C144.434 29.3433 144.819 29.4929 145.215 29.6005C145.632 29.7135 146.006 30.0067 146.427 29.9329C146.89 28.9125 147.324 27.9446 147.767 26.983C147.816 26.8831 147.928 26.8112 148.097 26.6413C148.212 28.0082 147.663 29.115 147.424 30.2842C147.8 30.5703 148.241 30.6519 148.658 30.8063C149.107 30.9726 149.556 31.1503 150.008 31.3025C150.415 31.4392 150.804 31.6761 151.271 31.6707C151.429 31.3104 151.565 31.0044 151.704 30.6914C152.17 29.6269 152.634 28.558 153.105 27.491C153.159 27.37 153.215 27.242 153.415 27.3394C153.544 29.0255 152.662 30.488 152.245 32.1248C153.209 32.4713 154.131 32.8067 155.055 33.1351C155.53 32.298 155.955 31.5195 156.405 30.7509C156.644 30.3368 156.911 29.9371 157.17 29.5356C157.187 29.5137 157.222 29.493 157.252 29.4933C157.287 29.491 157.317 29.5028 157.385 29.5168C157.502 29.9604 157.373 30.3925 157.216 30.7943C156.93 31.5268 156.597 32.2394 156.29 32.9664C156.214 33.1418 156.176 33.3308 156.109 33.5424C157.388 34.0087 158.61 34.4602 159.827 34.9029C159.882 34.9247 159.96 34.8965 160.088 34.8812C160.26 34.5544 160.451 34.1988 160.644 33.8362C160.836 33.4736 161.017 33.1002 161.224 32.7527C161.425 32.4149 161.554 32.0242 161.891 31.7258C162.071 32.0846 162.013 32.3924 161.935 32.6761C161.755 33.3349 161.533 33.9827 161.329 34.6315C161.253 34.8783 161.17 35.1232 161.086 35.3866C162.063 35.7737 162.967 36.1494 163.956 36.416C164.128 35.9879 164.285 35.6047 164.44 35.2284C164.58 34.8784 164.714 34.5266 164.857 34.181C165.009 33.8003 165.159 33.4152 165.335 33.0444C165.505 32.6948 165.598 32.2949 165.89 31.9995C166.187 32.2125 166.115 32.4751 166.071 32.6852C165.9 33.523 165.709 34.3553 165.496 35.182C165.353 35.7417 165.13 36.2767 165.012 36.8578C165.896 37.2394 166.72 37.6205 167.596 37.8576C168.683 35.5436 168.83 35.2967 169.41 34.7613C169.628 34.9911 169.561 35.2741 169.525 35.5274C169.383 36.4853 168.982 37.3567 168.469 38.1686C169.486 38.728 170.778 39.2165 171.517 39.3199C171.647 39.0535 171.776 38.7756 171.917 38.5084C172.227 37.9401 172.542 37.3691 172.869 36.8088C172.925 36.7108 173.058 36.6629 173.233 36.5362C173.245 36.8095 173.267 36.9807 173.255 37.1427C173.187 38.075 172.767 38.9038 172.408 39.8047C172.799 39.9862 173.132 40.1485 173.475 40.2871C173.849 40.4376 174.205 40.6398 174.647 40.6615C174.823 40.3735 174.988 40.1163 175.144 39.8529C175.318 39.5605 175.48 39.2575 175.659 38.9625C175.814 38.699 175.964 38.4267 176.146 38.1776C176.334 37.9189 176.45 37.5889 176.861 37.4261C176.891 37.956 176.699 38.36 176.524 38.7537C176.276 39.3157 175.98 39.8578 175.717 40.4161C175.622 40.6204 175.568 40.8427 175.481 41.1016C176.324 41.4538 177.106 41.7823 177.877 42.1046C178.449 41.2105 178.979 40.3767 179.519 39.5492C179.574 39.4697 179.703 39.4358 179.907 39.3165C179.759 40.5696 179.116 41.4453 178.541 42.3949C179.478 42.8053 180.336 43.2854 181.327 43.5564C181.827 42.7822 182.305 42.0324 182.788 41.2915C182.874 41.1638 182.93 40.9644 183.187 41.0995C183.247 42.1478 182.727 43.0592 182.38 44.0836C183.177 44.4502 183.946 44.798 184.751 45.1665C184.903 44.917 185.033 44.722 185.139 44.517C185.592 43.6744 186.036 42.8256 186.487 41.9786C186.559 41.8473 186.606 41.6531 186.854 41.7519C186.812 43.1039 186.168 44.302 185.782 45.6168C186.31 45.8077 186.78 45.9794 187.27 46.1567C187.463 45.7941 187.601 45.4811 187.781 45.1976C188.176 44.5615 188.584 43.9246 189.005 43.3028C189.081 43.1873 189.243 43.1283 189.412 43.0113C189.358 44.0072 188.892 45.2558 188.127 46.5126C188.339 46.6207 188.548 46.7428 188.763 46.8368C188.979 46.9309 189.2 47.0038 189.394 47.0809C190.644 45.9926 193.202 42.2051 193.597 40.8852C193.521 40.8279 193.449 40.7452 193.357 40.7098C192.783 40.4919 192.189 40.31 191.625 40.0684C190.582 39.6189 189.518 39.2651 188.414 38.9947C187.285 38.7327 186.187 38.3513 185.088 37.7443Z" fill="white"/>
<path d="M158.703 19.0207C162.508 16.878 166.49 16.614 170.589 18.014C173.542 19.0241 175.98 20.8002 177.974 23.1927C180.621 26.3642 182.093 30.0204 182.444 34.1303C182.484 34.6065 182.472 35.084 182.437 35.5629C182.392 36.1783 182.238 36.262 181.667 36.12C179.964 35.7001 178.375 34.9687 176.753 34.3223C172.875 32.7698 169.117 30.9445 165.31 29.2376C162.933 28.1758 160.534 27.1684 158.164 26.097C157.046 25.5902 155.968 24.9887 154.872 24.4276C154.753 24.3663 154.638 24.291 154.528 24.2061C154.281 24.0174 154.188 23.7565 154.31 23.4767C154.456 23.1356 154.631 22.7948 154.839 22.4888C155.771 21.1405 157.109 19.9589 158.703 19.0207ZM181.673 35.194C181.701 35.0586 181.725 34.9972 181.723 34.9329C181.712 34.7609 181.696 34.5916 181.673 34.4204C181.395 32.2974 180.761 30.2875 179.86 28.3505C178.426 25.2674 176.326 22.7461 173.493 20.8624C170.43 18.8325 167.075 18.01 163.419 18.6186C160.625 19.0809 158.28 20.4345 156.214 22.3155C155.736 22.7499 155.236 23.1672 154.844 23.7893C155.165 23.911 155.442 24.0286 155.729 24.1226C156.05 24.2327 156.391 24.307 156.707 24.4313C158.581 25.1923 160.456 25.9348 162.307 26.7388C165.006 27.9152 167.667 29.1679 170.375 30.3276C173.96 31.8673 177.597 33.2815 181.102 35.0105C181.267 35.1102 181.467 35.1362 181.673 35.194Z" fill="white"/>
</g>
<g clip-path="url(#clip1_1_5047)">
<path d="M66.9835 100.779C65.9638 100.872 64.9442 100.784 63.9246 100.685C62.1995 100.52 60.513 100.194 58.865 99.6432C58.5674 99.544 58.2202 99.5275 57.895 99.5495C55.988 99.6542 54.0865 99.8141 52.1796 99.8967C48.801 100.04 45.428 100.216 42.0494 100.249C36.3946 100.299 30.7343 100.249 25.0795 100.238C22.6158 100.233 20.1577 100.227 17.6941 100.205C16.7406 100.194 15.7871 100.139 14.7454 100.101C14.0289 100.558 13.2297 101.087 12.4196 101.583C11.6535 102.052 10.8929 102.548 10 102.785C11.0196 101.203 12.5463 100.211 14.0344 99.2243C14.7454 95.8568 15.969 92.7042 17.0492 89.5075C18.4326 85.4015 19.9372 81.334 21.249 77.2114C22.6158 72.9069 24.0984 68.641 25.6196 64.3916C26.066 63.1515 26.6558 61.961 27.1683 60.743C27.3061 60.4123 27.3778 60.0485 27.5211 59.7178C28.2155 58.1416 28.921 56.5763 29.6265 55C29.9351 55.0661 29.858 55.2866 29.8469 55.4354C29.7753 56.8133 29.3785 58.103 28.8108 59.3486C28.6785 59.6462 28.5407 59.9383 28.425 60.1974C28.5132 60.3627 28.5517 60.4784 28.6179 60.5556C30.6847 62.8043 32.4925 65.2624 34.3994 67.6434C36.4883 70.2503 38.5882 72.8573 40.6715 75.4642C44.3863 80.1104 48.09 84.7621 51.8048 89.4083C53.3645 91.3594 54.9574 93.2829 56.5006 95.245C57.0903 95.9946 57.6249 96.7882 58.121 97.6039C58.4461 98.1386 58.8099 98.4748 59.4548 98.6015C61.0035 98.9102 62.5357 99.285 64.0679 99.6708C65.0544 99.9243 66.0245 100.249 67 100.542C66.9945 100.624 66.989 100.701 66.9835 100.779ZM17.4791 93.0073C17.7271 93.0955 17.9917 93.2113 18.2728 93.2774C18.6641 93.3766 19.0664 93.4207 19.4577 93.5254C19.9152 93.6522 20.3727 93.79 20.8136 93.9663C21.2214 94.1317 21.4584 94.4679 21.4309 94.9198C21.3978 95.5757 21.3427 96.2371 21.2765 96.893C21.2104 97.5764 20.9624 98.2323 20.9844 98.9763C33.0987 99.2188 45.1524 98.8826 57.2612 98.7448C57.2061 98.5629 57.195 98.4472 57.1399 98.37C56.1313 96.9701 55.1392 95.5592 54.0865 94.1923C53.0118 92.7979 51.8599 91.4641 50.7631 90.0807C48.1837 86.8289 45.6209 83.5661 43.047 80.3143C42.8045 80.0057 42.6281 79.6144 42.1541 79.5593C42.0935 79.5538 41.9888 79.3884 42.0053 79.3223C42.088 78.9751 41.851 78.7766 41.6746 78.5507C40.6054 77.1948 39.5251 75.85 38.4559 74.4942C35.9702 71.3582 33.4845 68.2221 31.0154 65.075C30.1997 64.0334 29.4446 62.9476 28.6509 61.8894C28.5297 61.724 28.3643 61.5918 28.1549 61.3878C24.848 71.7605 21.4694 81.9954 17.6886 92.0924C17.6114 92.2964 17.5397 92.5058 17.4791 92.7152C17.4626 92.7924 17.4791 92.8696 17.4791 93.0073ZM19.8491 99.0314C19.9207 97.8575 19.9813 96.8378 20.042 95.8182C20.0585 95.5647 20.064 95.3056 20.0861 95.0521C20.1246 94.5836 19.9152 94.2915 19.4798 94.1262C18.7578 93.8561 18.0192 93.6853 17.1925 93.564C16.5477 95.2285 15.9138 96.8599 15.2855 98.4968C15.2635 98.5519 15.3186 98.6291 15.3351 98.6952C15.7871 98.6511 16.0902 98.1661 16.6965 98.2047C16.3823 98.5464 16.1453 98.8055 15.7981 99.1802C17.2366 99.2243 18.4877 99.0369 19.8491 99.0314Z" fill="white"/>
<path d="M11.9843 77.7572C12.9929 77.6083 13.8197 77.1178 14.8724 77.184C14.2937 77.7186 13.5606 77.6965 13.0095 78.165C13.1197 78.3524 13.2189 78.5288 13.3291 78.6996C13.4283 78.8539 13.5551 78.9917 13.6488 79.1461C14.1063 79.9287 13.9189 80.4688 13.0811 80.794C13.015 80.8216 12.9433 80.8491 12.8772 80.8712C11.6536 81.2074 10.9427 80.7223 10.8214 79.4657C10.7277 78.5012 10.9151 77.5643 11.1356 76.6328C11.2182 76.2801 11.3119 75.9273 11.4222 75.4809C11.1521 75.4809 10.9427 75.4919 10.7332 75.4809C10.5348 75.4699 10.3309 75.4368 10.127 75.4148C10.1766 75.0675 10.375 74.9353 10.5899 75.029C10.86 75.1502 11.0639 75.1227 11.3064 74.9959C11.5875 74.8526 11.7473 74.6266 11.8631 74.3455C12.2103 73.4968 12.5355 72.6425 12.9158 71.8047C13.2961 70.9725 13.7149 70.1568 14.1338 69.3411C14.2826 69.049 14.4755 68.7734 14.6629 68.5033C14.7676 68.3545 14.8889 68.2112 15.0322 68.101C15.44 67.7758 15.9251 67.7152 16.377 67.9412C16.8124 68.1616 16.7518 68.6136 16.6856 69.0159C16.5423 69.9308 16.2061 70.7796 15.7046 71.5622C15.0708 72.5653 14.2881 73.4416 13.3622 74.1692C12.8992 74.5329 12.6237 74.9573 12.4804 75.514C12.2985 76.2139 12.0339 76.8974 11.9843 77.7572ZM13.5827 73.0338C14.8228 72.0142 15.7432 70.256 15.8369 68.7238C15.8369 68.6907 15.7432 68.6521 15.6936 68.6136C14.922 69.4789 13.6929 72.0472 13.5827 73.0338ZM11.8686 78.6114C11.83 79.2894 11.8521 79.7799 12.1221 80.2318C12.1883 80.3365 12.3646 80.4854 12.4363 80.4578C12.5796 80.4027 12.7394 80.2649 12.7945 80.1271C12.8496 79.9728 12.8386 79.7633 12.778 79.609C12.6402 79.2342 12.4142 78.9256 11.8686 78.6114Z" fill="white"/>
<path d="M34.9503 106.395C34.3826 106.924 33.9913 107.294 33.5834 107.657C33.0543 108.131 32.437 108.291 31.7426 108.148C31.2962 108.06 31.0647 107.856 31.0592 107.415C31.0536 106.946 31.0867 106.456 31.23 106.015C31.6379 104.742 33.0157 103.733 34.2228 103.821C34.4763 103.838 34.7353 103.821 34.9723 103.821C35.6999 103.149 35.6999 103.149 36.488 103.425C36.5762 105.31 35.6447 110.573 35.033 111.67C34.6857 111.097 34.6361 110.705 34.7353 109.195C34.796 108.319 34.8731 107.448 34.9503 106.395ZM32.5252 107.299C32.7788 107.31 32.9 107.112 33.0433 106.957C33.6771 106.291 34.1952 105.541 34.6086 104.725C34.6637 104.621 34.6472 104.422 34.581 104.328C34.4763 104.185 34.2944 104.097 34.1015 104.202C33.9417 104.284 33.7708 104.362 33.6275 104.477C32.7788 105.166 32.3378 106.043 32.3985 107.15C32.404 107.2 32.4811 107.25 32.5252 107.299Z" fill="white"/>
<path d="M50.1248 76.2086C49.2925 76.6275 48.9894 77.2503 48.8075 77.9282C48.5926 78.7329 48.3501 79.5596 48.8681 80.4304C50.2405 80.0666 51.4034 79.1573 52.9246 78.8982C52.8034 79.1076 52.7703 79.2234 52.6986 79.2785C51.8168 79.8793 50.8854 80.3808 49.8823 80.7501C49.3532 80.9485 48.813 80.965 48.2619 80.8162C47.7879 80.6895 47.4958 80.4029 47.4296 79.9123C47.2974 78.9092 47.4021 77.9337 47.8816 77.0298C48.4493 75.9496 49.6122 75.4756 50.7696 75.8614C50.9901 75.9385 51.2105 76.1204 51.3538 76.3133C51.4806 76.4787 51.5082 76.7377 51.3153 76.9141C51.1334 77.0794 50.8688 77.1015 50.709 76.9582C50.472 76.7377 50.3011 76.4511 50.1248 76.2086Z" fill="white"/>
<path d="M36.2555 83.054C35.6106 83.8972 34.7839 84.5476 33.9627 85.2034C33.7532 85.3688 33.4997 85.4074 33.2627 85.2255C33.2627 85.1538 33.2352 85.0491 33.2682 85.0161C34.1446 84.1948 35.1311 83.539 36.2555 83.054Z" fill="white"/>
<path d="M28.1641 88.9184C29.0845 88.3507 29.9167 87.8382 30.7545 87.3256C30.7986 87.2981 30.8812 87.3477 30.9474 87.3587C30.5065 88.0256 29.6136 88.8633 29.0624 89.0838C28.8034 89.1885 28.5168 89.3153 28.1641 88.9184Z" fill="white"/>
<path d="M21.4903 93.6196C22.6312 92.6826 23.1658 92.3905 23.9815 92.2417C23.976 92.3023 23.9981 92.396 23.9595 92.4236C23.4635 92.848 22.9674 93.2779 22.4493 93.6692C22.1738 93.8731 22.036 93.84 21.4903 93.6196Z" fill="white"/>
<path d="M40.1989 80.7282C39.7304 81.2022 39.3942 81.8746 38.4297 81.7809C38.5454 81.6046 38.584 81.4613 38.6832 81.4006C39.1352 81.1085 39.6036 80.8385 40.0611 80.5574C40.1052 80.6125 40.1493 80.6731 40.1989 80.7282Z" fill="white"/>
<path d="M19.5435 95.6812C19.1026 96.2488 18.7058 96.8937 17.7578 96.9874C18.1987 96.3315 18.4578 96.1331 19.5435 95.6812Z" fill="white"/>
</g>
<g clip-path="url(#clip2_1_5047)">
<path d="M156.256 102.519C156.842 102.452 157.404 102.563 157.967 102.579C159.995 102.631 162.005 102.509 163.957 101.9C164.995 101.576 165.91 101.05 166.573 100.174C166.835 99.8298 167.056 99.4302 167.204 99.0275C167.463 98.3364 167.255 97.8252 166.589 97.4723C165.643 96.9672 164.61 96.7046 163.548 96.5953C162.804 96.5192 162.053 96.5099 161.239 96.4674C161.185 96.3721 161.075 96.2258 161.019 96.0616C160.824 95.4695 160.732 94.8567 160.724 94.2304C160.717 93.8059 160.848 93.5028 161.243 93.2754C162.32 92.6561 163.378 92.0034 164.442 91.3602C164.673 91.2212 164.937 91.1233 165.172 90.8042C164.247 90.7681 163.425 90.7396 162.604 90.7111C161.722 90.6787 160.844 90.651 159.965 90.6111C159.758 90.6035 159.55 90.5836 159.348 90.5411C158.717 90.403 158.351 89.8493 158.462 89.211C158.51 88.93 158.584 88.656 158.65 88.3517C159.25 88.2157 159.844 88.239 160.43 88.2603C162.058 88.317 163.688 88.3945 165.315 88.4512C166.246 88.4808 167.18 88.4954 168.111 88.4929C168.458 88.4899 168.664 88.6503 168.754 88.9443C168.84 89.2373 168.93 89.5596 168.892 89.8512C168.799 90.5671 168.647 91.2791 168.489 91.9853C168.454 92.145 168.31 92.3036 168.17 92.4066C167.797 92.6844 167.412 92.947 167.01 93.1847C166.363 93.5659 165.7 93.9185 165.045 94.2892C164.893 94.3731 164.755 94.4809 164.607 94.5818C164.729 94.8161 164.931 94.7859 165.09 94.8209C165.875 94.9883 166.652 95.1819 167.415 95.4442C168.853 95.933 170.44 97.8392 170.324 99.9136C170.272 100.822 169.901 101.615 169.295 102.293C168.507 103.168 167.617 103.914 166.558 104.438C165.484 104.97 164.362 105.351 163.179 105.559C161.694 105.823 160.199 105.903 158.697 105.815C158.284 105.793 157.869 105.777 157.458 105.751C156.821 105.708 156.384 105.357 156.232 104.756C156.046 104.013 156.017 103.272 156.256 102.519ZM156.797 105.005C156.969 105.039 157.069 105.074 157.168 105.077C159.828 105.191 162.438 104.961 164.974 104.071C166.623 103.493 167.929 102.489 168.959 101.104C169.275 100.681 169.489 100.216 169.603 99.7031C169.976 98.0078 169.482 97.1537 168.001 96.4358C167.491 96.1896 166.939 96.0124 166.391 95.8646C165.715 95.6822 165.027 95.561 164.342 95.4162C163.862 95.3148 163.564 95.0453 163.485 94.5044C164.909 93.3747 166.491 92.5093 168.099 91.7433C168.139 91.3112 168.167 90.9241 168.219 90.5394C168.271 90.1386 168.485 89.7616 168.453 89.314C168.327 89.2881 168.232 89.2505 168.131 89.2515C165.307 89.2866 162.494 89.1031 159.679 88.8951C159.506 88.8806 159.332 88.9141 159.144 88.9238C159.095 89.2407 158.987 89.5056 159.092 89.8159C159.246 89.8452 159.395 89.8895 159.546 89.8942C160.039 89.9184 160.531 89.9304 161.02 89.9414C162.65 89.9868 164.279 90.0238 165.908 90.0767C166.107 90.0823 166.328 90.1298 166.495 90.2272C166.689 90.344 166.828 90.5465 166.804 90.8582C166.618 90.9934 166.418 91.1528 166.197 91.2863C164.935 92.0531 163.668 92.8103 162.403 93.5723C162.138 93.7343 161.873 93.8963 161.61 94.063C161.446 94.1637 161.333 94.3021 161.319 94.4999C161.285 95.0141 161.322 95.5194 161.444 96.0393C162.846 95.8259 164.168 95.9854 165.464 96.4037C166.457 96.7239 167.181 97.3381 167.637 98.2745C167.937 98.895 167.96 99.5093 167.652 100.143C167.364 100.734 166.983 101.251 166.482 101.675C165.901 102.171 165.217 102.482 164.49 102.7C162.478 103.293 160.42 103.414 158.339 103.319C157.775 103.292 157.214 103.237 156.625 103.195C156.694 103.821 156.744 104.382 156.797 105.005Z" fill="white"/>
<path d="M182.265 94.4511C182.11 94.0587 182.2 93.7247 182.282 93.4046C182.439 92.7786 182.376 92.1013 182.739 91.5309C182.85 91.3594 182.961 91.1559 183.128 91.06C183.999 90.55 184.867 90.0315 185.867 89.8021C186.979 89.5465 188.08 89.5575 189.163 89.9144C190.517 90.3601 191.212 91.4095 191.112 92.824C191.101 92.954 191.079 93.0809 191.06 93.2088C190.944 94.1194 190.622 94.9669 190.246 95.7954C189.698 97.0045 188.987 98.1173 188.2 99.1815C187.293 100.41 186.365 101.626 185.447 102.848C185.246 103.115 185.044 103.387 184.866 103.673C184.76 103.842 184.696 104.034 184.589 104.267C184.784 104.32 184.925 104.394 185.064 104.387C185.969 104.345 186.875 104.332 187.769 104.151C188.378 104.029 188.992 103.917 189.616 103.977C190.162 104.027 190.29 104.134 190.376 104.669C190.479 105.285 190.493 105.905 190.383 106.523C190.315 106.891 190.116 107.152 189.753 107.231C189.326 107.321 188.889 107.388 188.453 107.42C187.238 107.506 186.022 107.432 184.804 107.393C183.588 107.351 182.375 107.338 181.163 107.49C180.417 107.582 180.305 107.504 180.1 106.8C179.937 106.229 179.812 105.647 179.671 105.066C179.585 104.712 179.666 104.396 179.89 104.118C180.053 103.917 180.229 103.727 180.412 103.542C181.617 102.329 182.838 101.133 184.033 99.913C184.794 99.136 185.475 98.2848 186.078 97.3766C186.518 96.7181 186.807 96.003 186.947 95.2314C187.008 94.9015 187.026 94.5642 187.02 94.2284C187.015 93.8605 186.888 93.5121 186.665 93.2184C186.158 92.546 185.917 92.5416 185.285 92.8542C184.965 93.0132 184.654 93.2112 184.362 93.4264C184.074 93.6426 183.795 93.8855 183.551 94.1497C183.195 94.5287 182.787 94.6362 182.265 94.4511ZM189.01 104.312C188.8 104.332 188.569 104.334 188.348 104.379C187.177 104.615 185.989 104.661 184.796 104.693C184.59 104.698 184.381 104.694 184.181 104.66C183.445 104.538 183.517 104.255 183.806 103.842C183.882 103.738 183.955 103.633 184.031 103.529C184.598 102.755 185.154 101.979 185.731 101.213C186.844 99.7456 187.88 98.2334 188.732 96.599C189.296 95.5108 189.719 94.3767 189.928 93.1688C190.032 92.5729 190.037 91.9864 189.828 91.4063C189.493 90.4825 188.745 89.9707 187.758 89.942C186.799 89.9166 185.922 90.2114 185.07 90.5935C184.48 90.857 183.921 91.1813 183.48 91.5899C183.409 92.1827 183.343 92.7124 183.266 93.34C183.564 93.1588 183.784 93.0328 183.997 92.8972C184.705 92.452 185.478 92.3061 186.303 92.3799C186.889 92.4333 187.32 92.7148 187.639 93.2035C187.907 93.614 187.967 94.065 187.935 94.5397C187.877 95.4099 187.614 96.2085 187.18 96.9652C186.662 97.8684 186.042 98.6914 185.357 99.4689C184.346 100.618 183.279 101.707 182.141 102.729C181.758 103.076 181.39 103.44 181.032 103.81C180.765 104.084 180.644 104.426 180.731 104.808C180.869 105.413 181.012 106.019 181.177 106.616C181.227 106.802 181.365 106.964 181.465 107.144C183.29 106.916 185.071 107.002 186.855 107.077C187.628 107.108 188.397 107.107 189.152 107.04C189.386 106.29 189.326 105.082 189.01 104.312Z" fill="white"/>
<path d="M212.41 88.7749C213.118 89.5378 213.178 89.6426 213.409 90.49C213.281 90.5762 213.146 90.701 212.991 90.7679C212.752 90.8644 212.503 90.938 212.25 90.9946C211.421 91.1857 210.7 91.591 210.071 92.146C208.918 93.1638 208.054 94.368 207.767 95.9215C207.717 96.1978 207.639 96.4707 207.702 96.8057C207.844 96.7716 207.97 96.7655 208.081 96.7147C208.92 96.3333 209.795 96.344 210.674 96.5046C211.181 96.597 211.683 96.7365 212.178 96.8862C213.447 97.2692 214.356 98.1103 214.874 99.293C215.573 100.883 215.744 102.532 215.145 104.214C214.465 106.12 212.321 107.68 210.38 107.619C209.283 107.585 208.319 107.156 207.447 106.509C206.923 106.122 206.484 105.646 206.12 105.1C205.598 104.319 205.179 103.482 204.959 102.568C204.353 100.053 204.302 97.5431 205.068 95.0479C205.678 93.0544 206.787 91.4087 208.475 90.1652C209.476 89.4247 210.578 88.953 211.829 88.8518C212.007 88.8353 212.185 88.8028 212.41 88.7749ZM211.888 89.1131C211.801 89.1059 211.722 89.0846 211.651 89.0936C210.881 89.1717 210.215 89.5073 209.599 89.9532C207.88 91.1924 206.735 92.8525 206.082 94.8546C205.297 97.2561 205.32 99.6942 205.848 102.14C206.052 103.085 206.461 103.956 207.007 104.752C207.866 105.999 209.019 106.829 210.528 107.103C211.284 107.239 212.04 107.214 212.686 106.731C213.534 106.095 214.184 105.3 214.455 104.249C214.882 102.605 214.684 100.997 213.979 99.4782C213.493 98.429 212.655 97.6995 211.53 97.3476C211.062 97.2012 210.581 97.0875 210.102 96.9824C209.2 96.7912 208.305 96.7349 207.462 97.2322C207.304 97.3264 207.123 97.3702 206.931 97.2139C206.916 97.1372 206.87 97.0364 206.881 96.9385C206.954 96.0563 207.065 95.1681 207.515 94.3957C208.528 92.6558 209.962 91.4 211.925 90.8103C212.096 90.7598 212.266 90.6969 212.487 90.6237C212.279 90.1087 212.087 89.6138 211.888 89.1131Z" fill="white"/>
<path d="M175.6 94.1055C175.879 93.7863 176.13 93.4996 176.38 93.2129C176.607 92.9559 176.862 92.7428 177.203 92.6577C177.462 92.5908 177.712 92.5775 177.924 92.7918C178.07 92.936 178.248 93.0524 178.388 93.2031C178.733 93.566 178.739 93.7688 178.413 94.14C178.174 94.4137 177.91 94.6606 177.665 94.9286C177.562 95.0417 177.478 95.1722 177.399 95.3037C177.376 95.3419 177.388 95.4015 177.379 95.5117C177.672 95.6633 177.995 95.8108 178.296 95.9927C178.56 96.1485 178.823 96.3204 179.056 96.5199C179.262 96.6963 179.297 96.9393 179.143 97.1514C178.83 97.5945 178.516 98.0413 178.148 98.4371C177.802 98.807 177.378 98.7812 176.978 98.4276C176.552 98.0547 176.142 97.6623 175.687 97.2455C175.552 97.3704 175.436 97.4597 175.35 97.5693C175.027 97.9735 174.724 98.3951 174.399 98.7945C174.123 99.1308 173.767 99.3165 173.287 99.2755C172.895 98.8316 172.657 98.2963 172.438 97.7216C172.674 97.4592 172.894 97.2086 173.114 96.9619C173.235 96.8255 173.359 96.6939 173.467 96.5498C173.76 96.1497 173.764 95.7603 173.481 95.3335C173.161 94.8608 172.88 94.3661 172.604 93.8687C172.495 93.6743 172.44 93.446 172.355 93.2219C172.88 92.8441 173.42 92.591 173.969 92.3768C174.531 92.1581 174.804 92.3848 174.952 92.8072C175.112 93.2411 175.294 93.6727 175.6 94.1055ZM173.069 93.3823C173.229 93.6389 173.387 93.8748 173.527 94.1179C173.684 94.3858 173.832 94.6592 173.97 94.9381C174.376 95.7764 174.602 95.8655 173.71 96.841C173.487 97.0867 173.223 97.3015 173.064 97.6371C173.254 98.0829 173.464 98.514 173.801 98.923C173.994 98.6974 174.176 98.5169 174.321 98.3065C174.558 97.9676 174.767 97.6094 175 97.2695C175.364 96.7397 175.876 96.6484 176.393 97.0456C176.759 97.3296 177.088 97.6639 177.436 97.9712C177.546 98.0695 177.667 98.1585 177.823 98.2811C178.066 97.9641 178.301 97.6893 178.498 97.3922C178.675 97.1258 178.635 96.9138 178.388 96.7102C178.23 96.579 178.055 96.4673 177.871 96.3734C177.549 96.2099 177.217 96.0679 176.892 95.9119C176.668 95.8031 176.608 95.6058 176.756 95.4039C176.891 95.215 177.05 95.0444 177.205 94.8729C177.412 94.6428 177.632 94.4244 177.836 94.1896C177.947 94.0625 177.97 93.9035 177.873 93.7565C177.69 93.4777 177.505 93.1942 177.127 93.0721C176.987 93.2194 176.84 93.361 176.706 93.5141C176.519 93.7294 176.342 93.9515 176.163 94.1688C175.881 94.5116 175.522 94.6642 175.023 94.6182C174.875 94.3288 174.717 94.0363 174.571 93.7394C174.422 93.4414 174.283 93.138 174.112 92.7859C173.763 92.9897 173.431 93.174 173.069 93.3823Z" fill="white"/>
<path d="M193.631 94.6477C194.093 94.6072 194.525 94.5427 194.959 94.5309C196.281 94.4971 197.602 94.483 198.921 94.4604C199.438 94.4512 199.957 94.4259 200.472 94.4402C200.973 94.4505 201.156 94.6086 201.315 95.0906C201.44 95.4664 201.46 95.8543 201.407 96.2428C201.371 96.5269 201.21 96.721 200.923 96.7845C200.696 96.8322 200.463 96.8901 200.234 96.8886C198.345 96.8902 196.457 96.8758 194.566 96.8689C194.514 96.867 194.462 96.8651 194.411 96.8632C193.701 96.8085 193.352 96.4003 193.433 95.6813C193.471 95.3454 193.558 95.0226 193.631 94.6477ZM201.093 95.1836C198.643 95.1748 196.283 95.162 193.905 95.1563C193.846 95.4947 193.81 95.8194 193.888 96.1302C193.997 96.1595 194.071 96.1958 194.148 96.1963C196.134 96.1927 198.116 96.1881 200.1 96.176C200.302 96.1741 200.507 96.1167 200.711 96.0752C200.911 96.0365 201.03 95.8953 201.072 95.7094C201.099 95.5637 201.084 95.4107 201.093 95.1836Z" fill="white"/>
<path d="M194.149 100.066C193.796 99.971 193.619 99.8065 193.512 99.548C193.344 99.1403 193.36 98.7379 193.538 98.3471C193.673 98.0535 193.88 97.8395 194.243 97.8368C194.502 97.8341 194.759 97.7908 195.016 97.7918C196.745 97.8032 198.471 97.8382 200.2 97.8298C200.729 97.8274 200.973 97.9498 201.125 98.5505C201.238 98.9996 201.277 99.4653 201.326 99.9254C201.349 100.137 201.224 100.272 201.019 100.302C200.84 100.326 200.658 100.341 200.479 100.333C198.518 100.259 196.563 100.178 194.604 100.096C194.42 100.091 194.24 100.071 194.149 100.066ZM200.897 98.5614C199.672 98.5489 198.512 98.5377 197.353 98.519C196.199 98.4975 195.046 98.4119 193.914 98.3842C193.684 98.7449 193.673 99.0559 193.824 99.435C194.075 99.4745 194.324 99.5376 194.575 99.5452C196.485 99.6014 198.396 99.6502 200.307 99.7028C200.539 99.709 200.772 99.7237 200.993 99.5335C201.047 99.2422 200.978 98.9458 200.897 98.5614Z" fill="white"/>
<path d="M210.499 97.7023C211.125 97.8591 211.649 98.1858 212.092 98.6353C213.347 99.9082 213.909 101.449 213.713 103.22C213.566 104.558 212.779 105.428 211.507 105.846C210.83 106.07 210.175 105.962 209.554 105.649C209.303 105.521 209.054 105.37 208.843 105.184C207.367 103.879 206.669 102.257 206.916 100.283C207.074 99.0248 208.12 97.9381 209.358 97.664C209.742 97.5826 210.125 97.5972 210.499 97.7023ZM212.877 104.034C212.904 103.606 212.982 103.14 212.96 102.683C212.885 101.173 212.295 99.882 211.18 98.8485C210.636 98.3432 209.996 98.0296 209.226 98.035C208.802 98.0375 208.487 98.2061 208.247 98.5562C207.905 99.0638 207.746 99.637 207.706 100.234C207.623 101.512 207.935 102.696 208.632 103.77C208.956 104.272 209.352 104.713 209.858 105.047C210.275 105.321 210.724 105.494 211.225 105.545C211.744 105.592 212.143 105.414 212.409 104.978C212.58 104.69 212.708 104.379 212.877 104.034Z" fill="white"/>
</g>
<g clip-path="url(#clip3_1_5047)">
<path d="M67.0647 34.9282C67.0224 35.3755 66.993 35.7331 66.9464 36.0902C66.8491 36.8856 66.7654 37.6883 66.4221 38.4265C66.1175 39.0844 65.9258 39.2451 65.2463 39.1528C63.4063 38.8904 61.5605 38.6469 59.7835 38.0624C59.5742 37.9941 59.3722 37.9121 59.1776 37.8164C58.5491 37.5144 58.1101 37.0637 58.0796 36.3183C58.0617 35.9178 58.0107 35.5215 57.9981 35.1194C57.9811 34.6843 57.9936 34.2518 57.9944 33.7428C57.724 33.8129 57.5122 33.8311 57.3262 33.9157C55.9726 34.5642 54.5399 35.0079 53.0999 35.408C50.396 36.1666 47.6873 36.9094 44.9628 37.5999C39.5117 38.9928 34.2165 40.8647 28.905 42.7015C28.6619 42.7863 28.4256 42.8747 28.1956 42.9841C27.1736 43.4811 26.102 43.833 24.9941 44.0643C22.9214 44.4895 20.8476 44.8922 18.7669 45.2912C18.377 45.3631 17.966 45.3842 17.5712 45.3832C17.2509 45.3827 17.0221 45.2116 16.9838 44.8573C17.7251 44.1877 20.657 42.6686 24.67 40.8863C24.7596 40.1789 25.349 39.9725 25.9474 39.7577C30.7107 38.0177 35.4739 36.2777 40.2304 34.534C42.628 33.6506 45.0203 32.7688 47.4116 31.8645C48.4322 31.4765 49.4402 31.0467 50.453 30.6325C50.6159 30.5662 50.761 30.4595 51.0092 30.316C50.8108 30.1701 50.6932 30.0455 50.5547 29.9844C49.7599 29.6239 48.9526 29.2786 48.1541 28.9249C42.8089 26.5756 37.4595 24.2504 32.1311 21.8618C29.8044 20.82 27.5227 19.6618 25.2331 18.5346C24.5211 18.1834 23.7971 17.8301 23.2453 17.2705C23.2207 16.6205 23.7402 16.2579 23.9044 15.6653C23.7376 15.6241 23.5787 15.552 23.4193 15.5544C22.5428 15.5673 21.6705 15.6132 20.7992 15.6245C19.9971 15.6378 19.194 15.6285 18.3945 15.6125C18.147 15.6071 17.9015 15.5325 17.6776 15.4914C17.6222 15.2509 17.7605 15.1977 17.8936 15.1461C18.9263 14.7603 20.0049 14.5835 21.0926 14.4555C21.8416 14.361 22.6026 14.2686 23.3632 14.1935C24.1012 14.1195 24.8107 14.197 25.5073 14.4785C26.216 14.7621 26.9357 15.0252 27.6684 15.2558C32.6124 16.8057 37.5052 18.5083 42.3208 20.4285C47.4736 22.4814 52.5988 24.594 57.7371 26.6742C57.9065 26.7431 58.0764 26.7948 58.3251 26.8798C58.3769 26.5212 58.4152 26.2123 58.4709 25.904C58.5473 25.475 58.598 25.0367 58.7226 24.616C58.901 24.0134 59.233 23.7875 59.8432 23.7634C59.9905 23.759 60.1373 23.7719 60.2789 23.7864C62.4585 23.9806 64.6241 24.2992 66.769 24.7383C66.8723 24.7586 66.9746 24.8135 67.1031 24.8605C67.421 25.3077 67.5497 25.8291 67.5458 26.3849C67.5404 27.2955 67.5177 28.2056 67.5071 29.1178C67.5027 29.3307 67.5051 29.5472 67.5008 29.8172C67.7641 29.875 68.0022 29.9632 68.2424 29.9822C69.5862 30.0971 70.9289 30.1893 72.278 30.3026C73.1866 30.3772 74.0948 30.4691 74.9993 30.5679C75.3254 30.6067 75.6453 30.6817 75.9631 30.7687C76.4871 30.9137 76.8425 31.2581 77.0567 31.7594C77.4992 32.8094 77.5396 33.8719 77.1932 34.9598C77.056 35.3956 76.777 35.6456 76.3246 35.662C75.6693 35.6882 75.0124 35.7091 74.3602 35.6887C72.2081 35.6233 70.0643 35.5097 67.9503 35.0212C67.708 34.9571 67.448 34.967 67.0647 34.9282ZM58.2891 27.7082C58.0924 27.6246 57.966 27.5656 57.8322 27.5202C56.5204 27.0755 55.1971 26.6687 53.8988 26.1742C50.7934 24.9958 47.7141 23.7523 44.6119 22.5843C38.5649 20.3153 32.51 18.0772 26.4572 15.827C26.1231 15.7049 25.7759 15.6152 25.4171 15.5062C25.0213 16.1459 24.4704 16.575 24.0689 17.2907C24.4351 17.4432 24.7362 17.5697 25.0336 17.7029C27.3692 18.7362 29.6954 19.7953 32.0366 20.8098C36.1857 22.6052 40.3567 24.3597 44.5089 26.1656C47.6214 27.5192 50.7098 28.9257 53.804 30.3133C55.1323 30.9073 56.4585 31.5134 57.7921 32.1058C57.8383 32.1262 57.9194 32.0731 58.0609 32.0305C58.14 30.606 58.2143 29.1657 58.2891 27.7082ZM59.3051 24.9548C59.2339 28.8124 59.252 32.7002 58.7862 36.6139C59.0575 36.755 59.302 36.9214 59.5643 37.0137C61.3755 37.6165 63.2469 37.8694 65.1324 38.0552C65.7092 38.1099 65.9143 37.8994 65.9643 37.3069C66.2476 33.7169 66.5293 30.1217 66.8074 26.5333C66.8248 26.2879 66.8182 26.0384 66.8199 25.7978C66.4085 25.5331 66.05 25.2925 65.596 25.2466C63.861 25.0668 62.1175 24.8782 60.3825 24.6984C60.058 24.6648 59.725 24.6223 59.3051 24.9548ZM26.0947 42.8233C26.3777 42.7379 26.6182 42.6825 26.8477 42.5904C27.8002 42.223 28.7464 41.8346 29.6937 41.4688C34.8031 39.4929 40.0169 37.8628 45.3044 36.4392C49.1749 35.3973 53.03 34.2857 56.8931 33.2003C57.0519 33.1581 57.1965 33.0688 57.4647 32.9535C56.3447 32.4625 55.3616 32.0273 54.368 31.5953C53.8344 31.3618 53.2826 31.1623 52.7528 30.922C52.3614 30.7428 52.0317 30.7679 51.6162 30.9447C49.1308 31.9918 46.6338 33.0195 44.121 33.9949C41.6748 34.9444 39.2075 35.8431 36.7402 36.7418C33.0426 38.0917 29.4125 39.627 25.6154 40.7039C25.5526 40.7229 25.4971 40.7854 25.4389 40.8201C25.1707 41.5985 25.6329 42.1451 26.0947 42.8233ZM69.6207 31.0642C70.4016 32.2693 71.0648 33.2927 71.7316 34.3092C71.7847 34.3904 71.908 34.439 72.0024 34.4677C72.0522 34.4812 72.1234 34.414 72.2428 34.3551C71.7947 33.3812 71.3465 32.4073 70.8931 31.435C70.7953 31.2244 70.6132 31.1136 70.3762 31.105C70.2032 31.1 70.0218 31.0862 69.6207 31.0642ZM67.6407 31.4558C68.0478 31.6302 68.1867 31.9771 68.3864 32.2599C68.616 32.5851 68.8262 32.9218 69.0275 33.267C69.1857 33.5451 69.323 33.8296 69.7192 34.0817C69.2909 33.0789 68.9315 32.2097 68.5511 31.3469C68.2976 30.7717 68.263 30.7707 67.4201 30.8763C67.3617 31.4027 67.3049 31.9344 67.2407 32.4797C67.4722 32.6786 67.6817 32.8612 67.9825 33.1192C67.9348 32.4876 67.5478 32.0384 67.6407 31.4558ZM73.7733 31.4122C74.4034 32.3827 74.9105 33.173 75.4229 33.9617C75.519 34.1099 75.6252 34.2723 75.759 34.3748C75.854 34.4434 76.0123 34.4185 76.2934 34.4595C75.9095 33.3576 75.3336 32.4908 74.8435 31.5296C74.5414 31.4949 74.2394 31.4603 73.7733 31.4122ZM71.3769 31.352C71.9482 32.3173 72.478 33.2208 73.0236 34.1196C73.1145 34.2693 73.2474 34.4065 73.388 34.5127C73.4489 34.5629 73.5799 34.5234 73.7461 34.5247C73.6656 34.3146 73.6187 34.1401 73.5435 33.9856C73.2122 33.3423 72.8757 32.7006 72.5287 32.0621C72.4104 31.8405 72.2889 31.6085 72.1335 31.4153C71.958 31.1938 71.7241 31.1386 71.3769 31.352ZM72.4568 31.312C73.2083 32.5145 73.8242 33.495 74.447 34.4791C74.4785 34.5267 74.5698 34.545 74.6332 34.5658C74.6642 34.5736 74.7029 34.5505 74.7972 34.5221C74.7675 33.9308 74.3296 33.5026 74.1333 32.9844C73.9254 32.4469 73.6703 31.9235 73.4262 31.3797C73.1672 31.355 72.9286 31.3412 72.4568 31.312ZM75.5142 31.6874C75.7268 32.5437 76.2098 33.3298 76.8181 33.7352C76.8663 33.3833 76.9082 33.0677 76.9623 32.7541C77.0304 32.3734 76.8559 32.1173 76.5406 31.9437C76.2305 31.7686 75.8989 31.6171 75.5142 31.6874ZM70.9454 34.3749C70.7818 34.0412 70.6866 33.8584 70.5967 33.674C70.176 32.8291 69.7605 31.9825 69.3204 31.1491C69.2284 30.9768 69.0391 30.9367 68.9131 31.1634C70.1064 33.5647 70.242 33.7868 70.9454 34.3749ZM67.685 34.3123C67.6771 33.9831 67.5865 33.7017 67.2664 33.5125C67.0951 34.2902 67.0951 34.2902 67.685 34.3123Z" fill="white"/>
</g>
<g clip-path="url(#clip4_1_5047)">
<path d="M121.305 93.896C121.321 95.2088 121.238 96.5113 120.933 97.7931C120.649 99.0025 120.054 100.021 119.15 100.874C118.132 101.835 116.994 102.595 115.651 102.993C112.684 103.871 109.712 104.745 106.735 105.592C104.549 106.213 102.352 106.771 100.16 107.37C98.3256 107.877 96.4649 108.187 94.568 108.265C94.1907 108.28 93.8082 108.285 93.4309 108.254C92.1336 108.135 91.0585 107.613 90.2677 106.538C89.4253 105.396 88.7533 104.161 88.2055 102.853C87.2751 100.625 86.505 98.3461 85.8486 96.0254C84.6702 91.8492 83.5382 87.6627 82.7681 83.3934C82.334 80.99 81.9825 78.5711 81.6104 76.1522C81.0987 72.8547 80.5973 69.5519 80.0856 66.2544C80.0184 65.8099 79.8427 65.3654 80.3596 65.0604C80.68 63.7218 81.7757 63.1532 82.8818 62.6726C84.9389 61.7836 87.058 61.091 89.327 60.9566C90.2832 60.9049 91.2291 60.6982 92.1853 60.5844C93.4154 60.4449 94.6507 60.326 95.886 60.2071C97.8759 60.0159 99.84 59.6696 101.799 59.2975C103.995 58.8788 106.197 58.4963 108.404 58.1397C109.391 57.9795 110.389 57.964 111.392 58.0725C112.653 58.2069 113.692 58.7341 114.483 59.7368C115.408 60.9101 116.09 62.2126 116.56 63.6339C117.119 65.3085 117.506 67.0193 117.744 68.756C118.431 73.8419 119.341 78.8864 120.173 83.9465C120.628 86.6961 121.021 89.4613 121.217 92.242C121.253 92.7951 121.274 93.3429 121.305 93.896ZM80.9798 65.5928C81.2124 66.3836 81.445 67.102 81.631 67.836C82.2564 70.2394 82.6441 72.6893 83.0524 75.134C83.4349 77.4082 83.776 79.6927 84.1688 81.9617C84.8614 85.9674 85.7969 89.9213 86.8358 93.8495C87.5646 96.6147 88.3709 99.354 89.4976 101.99C90.0558 103.292 90.7174 104.533 91.6684 105.603C92.3403 106.357 93.1621 106.812 94.17 106.91C94.5473 106.947 94.9246 106.978 95.3019 106.962C97.235 106.874 99.137 106.585 100.993 106.037C102.672 105.541 104.347 105.014 106.042 104.564C109.634 103.608 113.216 102.626 116.762 101.52C117.222 101.375 117.666 101.189 118.106 100.992C118.628 100.755 119.021 100.367 119.222 99.8243C119.46 99.1783 119.713 98.5322 119.858 97.8655C120.209 96.2322 120.111 94.5731 119.977 92.9243C119.687 89.389 119.077 85.8898 118.509 82.3907C118.137 80.0804 117.734 77.7752 117.336 75.4648C116.943 73.1906 116.555 70.9165 116.131 68.6526C115.847 67.1279 115.465 65.629 114.922 64.1714C114.508 63.0602 113.93 62.0523 113.18 61.1375C112.41 60.1968 111.469 59.6128 110.218 59.4422C108.963 59.2716 107.743 59.3905 106.523 59.6128C103.918 60.0831 101.318 60.6103 98.7132 61.1013C97.7002 61.2925 96.6819 61.4631 95.6586 61.5975C94.0201 61.8146 92.3765 61.98 90.7381 62.1867C89.4046 62.3521 88.0814 62.5847 86.7479 62.7242C85.5747 62.8431 84.4427 63.086 83.3212 63.4478C82.7681 63.6236 82.3236 63.8923 81.967 64.3317C81.6207 64.7503 81.2899 65.1897 80.9798 65.5928Z" fill="white"/>
<path d="M93.2664 103.339C92.8167 102.781 92.5738 102.135 92.3619 101.489C91.8709 99.9846 91.3954 98.4753 90.9302 96.9661C90.1394 94.4025 89.3796 91.8285 88.5733 89.2701C87.798 86.8098 86.9762 84.3599 86.1751 81.91C86.1131 81.7136 86.0252 81.5224 85.9942 81.3208C85.9477 81.021 85.8547 80.6954 85.927 80.4163C86.0304 80.0286 86.449 80.2095 86.7333 80.132C86.9659 80.07 87.1933 79.9925 87.4259 79.9201C90.8527 78.8916 94.295 77.925 97.8148 77.2583C99.7426 76.8913 101.681 76.6122 103.619 76.2969C104.942 76.0798 106.276 75.9041 107.594 75.6509C109.361 75.3149 111.129 75.1133 113.021 75.2942C113.145 75.4958 113.31 75.7542 113.46 76.0127C113.925 76.819 113.894 77.8268 114.499 78.5763C114.354 79.1396 114.592 79.6565 114.701 80.1889C115.243 82.9592 115.807 85.7244 116.349 88.4896C116.742 90.4795 117.125 92.4746 117.486 94.4697C117.621 95.2139 117.698 95.9686 117.76 96.7232C117.802 97.1987 117.848 97.6949 117.435 98.1445C117.083 98.036 116.721 98.0567 116.318 98.2066C114.349 98.9353 112.328 99.4832 110.271 99.9225C107.175 100.589 104.105 101.354 101.004 101.99C98.6779 102.465 96.3262 102.791 93.9848 103.189C93.7471 103.23 93.5197 103.287 93.2664 103.339ZM116.83 97.5812C116.587 96.2115 116.241 94.847 116.008 93.467C115.77 92.0766 115.528 90.6914 115.254 89.3063C114.98 87.9366 114.892 86.5307 114.52 85.1972C113.631 85.2437 110.638 85.8795 109.935 86.1586C110.798 90.2108 111.661 94.2629 112.53 98.3203C113.212 98.3409 115.564 97.943 116.83 97.5812ZM103.697 94.082C104.947 93.9115 106.09 93.5393 107.253 93.2602C108.41 92.9811 109.589 92.795 110.793 92.4798C110.271 90.3606 109.909 88.2674 109.248 86.262C108.126 86.2878 103.226 87.399 102.249 87.8487C102.554 89.5233 102.983 91.1825 103.366 92.8519C103.454 93.2499 103.573 93.6375 103.697 94.082ZM112.147 98.5115C111.899 97.483 111.667 96.5526 111.46 95.6171C111.258 94.6971 111.196 93.7409 110.814 92.8364C108.658 93.5187 106.513 93.9838 104.384 94.4903C104.198 94.5369 104.027 94.6454 103.826 94.7384C104.224 96.594 104.611 98.3926 105.02 100.269C107.408 99.6796 109.728 99.1111 112.147 98.5115ZM102.012 87.1199C102.265 87.0838 102.399 87.0734 102.534 87.0476C104.622 86.6083 106.71 86.1638 108.793 85.7141C108.881 85.6934 108.953 85.6004 109.082 85.5022C108.839 84.6494 108.591 83.7965 108.348 82.9437C108.1 82.0909 107.95 81.2122 107.568 80.4008C107.382 80.4008 107.242 80.3749 107.113 80.4059C105.061 80.8401 103.009 81.2846 100.957 81.7291C100.802 81.7653 100.663 81.8738 100.492 81.9565C100.993 83.6777 101.49 85.3575 102.012 87.1199ZM101.577 88.0089C100.482 88.0761 99.5462 88.4328 98.5901 88.6757C97.639 88.9186 96.657 89.0737 95.706 89.4716C95.9024 90.5364 96.197 91.5184 96.4813 92.5056C96.7759 93.5187 96.9878 94.5575 97.3961 95.6016C98.0784 95.4569 98.7089 95.3328 99.3395 95.1881C99.9752 95.0434 100.611 94.8883 101.236 94.7178C101.851 94.5524 102.523 94.542 103.097 94.1285C102.606 92.1128 102.105 90.1177 101.577 88.0089ZM97.484 96.0306C97.6856 97.023 98.0474 97.912 98.2748 98.832C98.5022 99.752 98.7193 100.682 98.9519 101.659C100.854 101.21 102.704 100.868 104.529 100.372C104.529 100.212 104.549 100.103 104.524 100.005C104.146 98.4702 103.769 96.9299 103.381 95.3948C103.335 95.2036 103.242 95.0279 103.154 94.7953C101.262 95.1571 99.4222 95.5654 97.484 96.0306ZM101.273 87.337C101.123 86.1741 100.141 82.7835 99.7737 82.1064C98.6883 82.1788 94.879 83.1401 94.1916 83.5329C94.4138 84.4116 94.6206 85.3109 94.8738 86.1999C95.1219 87.0786 95.1891 88.0089 95.6336 88.8721C97.5305 88.3604 99.3808 87.8539 101.273 87.337ZM90.2686 90.831C90.2893 91.0584 90.279 91.198 90.3203 91.3272C90.8268 92.9708 91.3437 94.6144 91.8606 96.2528C91.9071 96.4027 92.0208 96.5319 92.1035 96.6663C92.8322 96.5268 93.5093 96.3924 94.1864 96.2632C94.8635 96.134 95.5406 96.0099 96.2125 95.8652C96.3676 95.8342 96.5019 95.7205 96.6725 95.6378C96.4813 94.9245 96.3107 94.2629 96.1298 93.6013C95.9489 92.9398 95.768 92.273 95.5613 91.6166C95.3545 90.9757 95.277 90.2831 94.8738 89.637C93.3439 90.0299 91.8502 90.4175 90.2686 90.831ZM113.439 79.1138C111.749 79.4498 110.204 79.7495 108.658 80.07C108.509 80.101 108.379 80.225 108.255 80.2974C108.591 81.8893 109.506 84.9181 109.801 85.4402C111.263 85.3161 113.713 84.8768 114.463 84.5925C114.22 82.7835 113.951 80.9693 113.439 79.1138ZM90.1291 90.2935C91.0129 90.2056 94.1451 89.3321 94.7808 88.9806C94.5586 88.1071 94.3518 87.213 94.0986 86.3292C93.8453 85.4505 93.7264 84.5305 93.3078 83.6363C91.6383 84.0085 90.0412 84.4685 88.4648 84.9801C88.6095 85.9363 89.7621 89.606 90.1291 90.2935ZM96.8069 96.2425C96.595 96.2632 96.4296 96.2632 96.2694 96.2942C95.0186 96.5319 93.7678 96.7697 92.517 97.0178C92.3981 97.0436 92.2947 97.1522 92.1707 97.2297C92.3619 97.8551 92.5531 98.4443 92.7289 99.0387C92.9098 99.6641 93.0597 100.305 93.2509 100.93C93.4318 101.514 93.4008 102.15 93.6541 102.708C93.8091 102.714 93.9125 102.739 94.0107 102.724C95.3907 102.434 96.7707 102.14 98.1456 101.835C98.2386 101.814 98.3161 101.732 98.3988 101.685C97.7579 99.8553 97.422 98.0257 96.8069 96.2425ZM106.565 76.6742C105.206 76.7466 103.991 76.9637 102.777 77.1704C101.541 77.3823 100.28 77.496 99.0294 77.9147C99.2671 78.5194 99.4635 79.0569 99.691 79.5893C99.9132 80.1165 99.9442 80.7264 100.342 81.1657C102.466 80.7522 104.549 80.3491 106.632 79.9304C106.886 79.8788 107.129 79.765 107.408 79.6668C107.129 78.6641 106.86 77.7131 106.565 76.6742ZM98.4608 77.9819C96.5691 78.3333 94.7756 78.7727 92.9976 79.2275C93.07 79.9925 93.7316 82.0961 94.1192 82.7628C95.9127 82.2977 97.7269 81.8221 99.5928 81.3466C99.3395 80.1682 98.9622 79.1138 98.4608 77.9819ZM86.909 80.6747C86.9297 80.8143 86.9297 80.9176 86.9607 81.0107C87.3432 82.0754 87.7257 83.1401 88.1185 84.1997C88.1598 84.3134 88.2736 84.4013 88.3614 84.5098C89.974 83.9464 91.6073 83.5743 93.1992 82.9696C92.9098 81.7446 92.6255 80.5869 92.2585 79.4187C91.9691 79.4756 91.7365 79.5118 91.5039 79.5635C89.9792 79.9356 88.4493 80.3026 86.909 80.6747ZM107.981 79.548C108.183 79.5583 108.286 79.5893 108.385 79.5686C109.909 79.2844 111.429 79.0001 112.948 78.7055C113.062 78.6848 113.16 78.5711 113.295 78.4832C113.021 77.5736 112.943 76.6381 112.39 75.8059C111.486 75.961 110.607 76.1057 109.734 76.2711C108.865 76.4313 107.966 76.3951 107.072 76.7104C107.377 77.6718 107.671 78.5814 107.981 79.548Z" fill="white"/>
<path d="M83.6369 66.7765C84.0142 66.6421 84.4587 66.4716 84.9135 66.3269C87.5753 65.4792 90.2785 64.8021 93.0179 64.2853C97.4163 63.4583 101.815 62.6468 106.224 61.8612C107.407 61.6493 108.611 61.5408 109.811 61.4115C110.25 61.365 110.7 61.2875 111.139 61.4632C111.919 64.828 112.472 68.2186 112.896 71.6247C112.56 71.9968 112.178 72.126 111.697 72.1415C111.185 72.157 110.679 72.3069 110.172 72.3999C108.41 72.7152 106.658 73.0874 104.885 73.3406C101.717 73.8006 98.5534 74.2865 95.4109 74.8964C93.2815 75.3099 91.1623 75.7595 89.0329 76.1885C88.0198 76.3953 87.0016 76.5503 85.9007 76.4314C85.6216 76.1885 85.4511 75.8164 85.3063 75.4287C85.0893 74.8499 84.8825 74.2658 84.7119 73.6714C84.3863 72.5498 84.0762 71.4179 83.7764 70.286C83.6524 69.8208 83.5697 69.3453 83.4715 68.875C83.3371 68.1927 83.2906 67.5156 83.6369 66.7765ZM84.6034 67.3296C84.8722 68.3426 85.1254 69.2316 85.3373 70.1361C85.5544 71.0768 85.7095 72.0278 85.9214 72.9685C86.123 73.8627 86.1178 74.7982 86.3969 75.7595C88.1232 75.3771 89.772 74.9119 91.4466 74.5449C93.0902 74.1831 94.739 73.8161 96.3981 73.5164C98.0934 73.2114 99.799 72.984 101.5 72.7204C103.164 72.462 104.828 72.1622 106.503 71.9503C108.198 71.7332 109.904 71.5936 111.609 71.4179C111.661 70.7253 111.63 70.1258 111.465 69.5107C110.948 67.6138 110.545 65.6963 110.317 63.7426C110.271 63.3446 110.24 62.9259 110.007 62.5228C109.376 62.6262 108.772 62.7347 108.162 62.8277C105.51 63.2412 102.854 63.6237 100.207 64.0734C97.1527 64.5954 94.1084 65.1639 91.0951 65.8979C89.4257 66.3062 87.7459 66.6887 86.0661 67.0711C85.6009 67.1745 85.1254 67.2365 84.6034 67.3296Z" fill="white"/>
</g>
<g clip-path="url(#clip5_1_5047)">
<path d="M110.943 28.4791C110.5 28.6638 110.147 28.9393 109.758 29.1442C109.381 29.3424 109.012 29.5507 108.639 29.7522C108.246 29.9639 107.849 30.1722 107.416 30.4039C107.456 30.5652 107.497 30.7298 107.544 30.8944C108.159 33.0007 108.888 35.0667 109.697 37.1058C110.648 39.501 111.965 41.6677 113.614 43.643C113.816 43.8849 114.014 44.1267 114.192 44.382C114.343 44.5937 114.283 44.8792 114.081 45.0405C114.047 45.0673 114.004 45.0875 113.963 45.1077C113.174 45.5276 112.395 45.9744 111.588 46.3573C110.896 46.6865 110.732 46.6832 110.181 46.0684C109.66 45.4873 109.203 44.8456 108.763 44.1973C107.846 42.8435 107.05 41.4158 106.334 39.9444C105.569 38.3722 104.984 36.7262 104.483 35.0532C104.184 34.0488 103.835 33.0544 103.785 31.9492C103.64 31.9929 103.533 32.0097 103.439 32.0534C102.575 32.4363 101.665 32.6614 100.748 32.873C100.321 32.9738 99.9047 32.9402 99.4982 32.7689C98.5509 32.3725 97.8723 31.6738 97.3349 30.8272C97.1299 30.5047 97.056 30.1251 97.0056 29.7422C96.9586 29.4096 97.0863 29.1677 97.3684 29.0132C97.6439 28.8654 97.9227 28.7109 98.215 28.6134C99.0716 28.3313 99.8275 27.8509 100.624 27.4444C102.176 26.6482 103.734 25.8655 105.323 25.1466C107.749 24.0481 110.194 23 112.64 21.9553C114.081 21.3405 115.549 20.7963 117.054 20.363C117.81 20.1446 118.572 20.027 119.365 19.9934C120.578 19.9397 121.723 21.3439 121.586 22.4457C121.438 23.6047 121.226 24.7435 120.907 25.8622C120.877 25.9697 120.833 26.0738 120.79 26.1779C120.581 26.6482 120.544 26.6684 119.943 26.5878C119.711 26.2451 119.573 25.8487 119.479 25.4322C119.365 24.935 119.291 24.421 119.029 23.9306C118.871 23.9474 118.717 23.944 118.572 23.9809C118.401 24.0246 118.233 24.0952 118.069 24.1657C116.943 24.6528 115.818 25.1466 114.625 25.5061C114.625 25.58 114.608 25.6505 114.629 25.7076C115.052 26.9338 115.428 28.1767 115.912 29.3794C116.701 31.3513 117.497 33.3232 118.522 35.191C118.888 35.8595 119.244 36.5313 119.594 37.2066C120.151 38.2782 120.763 39.3196 121.465 40.3072C121.633 40.5424 121.791 40.7909 121.915 41.053C122.053 41.3419 122.012 41.6543 121.757 41.8458C121.058 42.3665 120.339 42.8603 119.446 42.998C119.382 43.0081 119.315 42.9846 119.271 42.9779C117.682 41.3016 116.271 39.511 115.018 37.5996C114.195 36.3466 113.466 35.0331 112.878 33.6524C112.411 32.564 111.971 31.4621 111.548 30.3569C111.347 29.8362 111.212 29.292 111.044 28.7579C111.021 28.684 110.99 28.6067 110.943 28.4791ZM120.988 41.1504C120.978 41.0664 120.984 41.0127 120.964 40.9824C120.867 40.8346 120.766 40.6834 120.652 40.5457C119.893 39.5984 119.271 38.5637 118.7 37.4955C117.783 35.7755 117.004 33.9951 116.261 32.1945C115.767 30.9952 115.216 29.8194 114.736 28.6168C114.363 27.6829 114.054 26.7255 113.732 25.7715C113.601 25.3818 113.661 25.2575 114.004 25.0559C114.101 24.9988 114.202 24.9518 114.303 24.9048C115.156 24.5117 116.003 24.1019 116.866 23.7324C117.544 23.4435 118.24 23.2083 119.006 23.2553C119.419 23.2788 119.688 23.4535 119.832 23.8197C119.933 24.0683 119.987 24.3303 120.074 24.5856C120.098 24.6562 120.158 24.7166 120.225 24.8141C120.638 23.3561 120.83 21.7 120.669 20.9844C120.578 20.9475 120.477 20.887 120.373 20.8702C120.175 20.8366 119.973 20.8098 119.772 20.8064C119.073 20.7862 118.391 20.8803 117.716 21.0583C115.828 21.5622 114.021 22.2744 112.25 23.0874C108.572 24.7771 104.903 26.487 101.238 28.207C100.409 28.5966 99.6057 29.0401 98.7995 29.4768C98.5879 29.591 98.4065 29.7657 98.2351 29.937C98.1142 30.0579 98.0907 30.2393 98.2116 30.367C98.6853 30.8709 99.1052 31.4252 99.6696 31.8451C100.022 32.1071 100.382 32.1877 100.802 32.0836C101.779 31.8417 102.76 31.62 103.667 31.1632C103.728 31.1329 103.785 31.0993 103.849 31.0758C104.154 30.9683 104.369 31.0355 104.51 31.3446C104.658 31.6671 104.776 32.0097 104.863 32.3557C105.078 33.2258 105.246 34.1059 105.468 34.9693C105.827 36.36 106.422 37.6668 106.976 38.9836C107.866 41.0966 108.978 43.082 110.309 44.9464C110.44 45.1278 110.571 45.3126 110.722 45.4738C110.822 45.5813 110.957 45.6552 111.074 45.7426C111.481 45.5141 111.844 45.2924 112.223 45.1043C112.596 44.9162 112.986 44.7583 113.396 44.5769C113.312 44.466 113.261 44.3921 113.208 44.3249C111.82 42.7024 110.671 40.9186 109.684 39.0273C108.78 37.2939 108.085 35.4799 107.54 33.6087C107.285 32.7286 107.047 31.8417 106.818 30.9549C106.764 30.7432 106.761 30.5114 106.764 30.2897C106.764 30.0277 106.882 29.8161 107.124 29.6918C107.205 29.6515 107.282 29.6044 107.362 29.5641C108.182 29.1543 109.002 28.7444 109.825 28.338C110.225 28.1431 110.631 27.9517 111.044 27.7803C111.175 27.7266 111.336 27.7467 111.474 27.7299C111.656 28.1868 111.837 28.5933 111.978 29.0132C112.781 31.4487 113.99 33.6961 115.21 35.9367C115.425 36.3298 115.653 36.7161 115.912 37.0789C117 38.6107 118.099 40.1359 119.201 41.6576C119.301 41.7954 119.436 41.9062 119.563 42.0372C120.064 41.7282 120.534 41.4326 120.988 41.1504Z" fill="white"/>
</g>
<defs>
<clipPath id="clip0_1_5047">
<rect width="49" height="42.5269" fill="white" transform="translate(172 2) rotate(59.6753)"/>
</clipPath>
<clipPath id="clip1_1_5047">
<rect width="57" height="56.6693" fill="white" transform="translate(10 55)"/>
</clipPath>
<clipPath id="clip2_1_5047">
<rect width="58.6937" height="30.7347" fill="white" transform="translate(162.193 75.2229) rotate(15.1027)"/>
</clipPath>
<clipPath id="clip3_1_5047">
<rect width="51.101" height="61.3212" fill="white" transform="translate(68) rotate(73.2123)"/>
</clipPath>
<clipPath id="clip4_1_5047">
<rect width="41.3073" height="50.28" fill="white" transform="translate(80 58)"/>
</clipPath>
<clipPath id="clip5_1_5047">
<rect width="25" height="26.5755" fill="white" transform="translate(97 20)"/>
</clipPath>
</defs>
</svg>
